{
  "source": "C:\\Users\\Peter\\Desktop\\stuff\\MIUN\\quantitative_research\\video_compression\\videos\\BVI-HD\\BVI-HD_CDVL_videos\\ORIG\\Lightreef_1920x1080_30fps.mp4",
  "output": "C:\\Users\\Peter\\Desktop\\stuff\\MIUN\\quantitative_research\\video_compression\\compressed_videos\\BVI-HD\\av1\\8\\Lightreef_1920x1080_30fps_av1.mkv",
  "codec": "av1",
  "ok": "Input #0, mov,mp4,m4a,3gp,3g2,mj2, from 'C:\\Users\\Peter\\Desktop\\stuff\\MIUN\\quantitative_research\\video_compression\\videos\\BVI-HD\\BVI-HD_CDVL_videos\\ORIG\\Lightreef_1920x1080_30fps.mp4':\n  Metadata:\n    major_brand     : isom\n    minor_version   : 512\n    compatible_brands: isomiso2avc1mp41\n    encoder         : Lavf54.28.101\n  Duration: 00:00:05.00, start: 0.000000, bitrate: 361719 kb/s\n  Stream #0:0[0x1](und): Video: h264 (High 4:4:4 Predictive) (avc1 / 0x31637661), yuv420p(progressive), 1920x1080, 361715 kb/s, 30 fps, 30 tbr, 30 tbn (default)\n    Metadata:\n      handler_name    : VideoHandler\n      vendor_id       : [0][0][0][0]\n[out#0/matroska @ 0000017987749700] Codec AVOption b:a (set bitrate (in bits/s)) has not been used for any stream. The most likely reason is either wrong type (e.g. a video option with no video streams) or that it is a private option of some decoder which was not actually used for any stream.\nStream mapping:\n  Stream #0:0 -> #0:0 (h264 (native) -> av1 (libsvtav1))\nPress [q] to stop, [?] for help\nSvt[info]: -------------------------------------------\nSvt[info]: SVT [version]:\tSVT-AV1 Encoder Lib v3.1.0-19-g6ecfe8ec\nSvt[info]: SVT [build]  :\tGCC 15.2.0\t 64 bit\nSvt[info]: LIB Build date: Aug 17 2025 11:37:13\nSvt[info]: -------------------------------------------\nSvt[info]: Level of Parallelism: 5\nSvt[info]: Number of PPCS 93\nSvt[info]: [asm level on system : up to avx2]\nSvt[info]: [asm level selected : up to avx2]\nSvt[info]: -------------------------------------------\nSvt[info]: SVT [config]: main profile\ttier (auto)\tlevel (auto)\nSvt[info]: SVT [config]: width / height / fps numerator / fps denominator \t\t: 1920 / 1080 / 30 / 1\nSvt[info]: SVT [config]: bit-depth / color format \t\t\t\t\t: 8 / YUV420\nSvt[info]: SVT [config]: preset / tune / pred struct \t\t\t\t\t: 4 / PSNR / random access\nSvt[info]: SVT [config]: gop size / mini-gop size / key-frame type \t\t\t: 161 / 16 / key frame\nSvt[info]: SVT [config]: BRC mode / target bitrate (kbps)\t\t\t\t: VBR / 8000 \nSvt[info]: SVT [config]: AQ mode / Variance Boost \t\t\t\t\t: 2 / 0\nSvt[info]: SVT [config]: sharpness / luminance-based QP bias \t\t\t\t: 0 / 0\nSvt[info]: SVT [config]: QP scale compress strength \t\t\t\t\t: 0\nSvt[info]: -------------------------------------------\nOutput #0, matroska, to 'C:\\Users\\Peter\\Desktop\\stuff\\MIUN\\quantitative_research\\video_compression\\compressed_videos\\BVI-HD\\av1\\8\\Lightreef_1920x1080_30fps_av1.mkv':\n  Metadata:\n    major_brand     : isom\n    minor_version   : 512\n    compatible_brands: isomiso2avc1mp41\n    encoder         : Lavf62.3.100\n  Stream #0:0(und): Video: av1 (AV01 / 0x31305641), yuv420p(tv, progressive), 1920x1080, q=2-31, 8000 kb/s, 30 fps, 1k tbn (default)\n    Metadata:\n      encoder         : Lavc62.11.100 libsvtav1\n      handler_name    : VideoHandler\n      vendor_id       : [0][0][0][0]\n    Side data:\n      cpb: bitrate max/min/avg: 0/0/8000000 buffer size: 8000000 vbv_delay: N/A\nframe=    0 fps=0.0 q=0.0 size=       0KiB time=N/A bitrate=N/A speed=N/A elapsed=0:00:01.03    \nframe=    0 fps=0.0 q=0.0 size=       0KiB time=N/A bitrate=N/A speed=N/A elapsed=0:00:01.59    \nframe=    0 fps=0.0 q=0.0 size=       0KiB time=N/A bitrate=N/A speed=N/A elapsed=0:00:02.12    \nframe=    0 fps=0.0 q=0.0 size=       0KiB time=N/A bitrate=N/A speed=N/A elapsed=0:00:02.68    \nframe=    0 fps=0.0 q=0.0 size=       0KiB time=N/A bitrate=N/A speed=N/A elapsed=0:00:03.27    \nframe=    1 fps=0.3 q=19.0 size=       1KiB time=00:00:00.00 bitrate=N/A speed=   0x elapsed=0:00:03.80    \nframe=    1 fps=0.2 q=19.0 size=       1KiB time=00:00:00.00 bitrate=N/A speed=   0x elapsed=0:00:04.32    \nframe=    1 fps=0.2 q=19.0 size=       1KiB time=00:00:00.00 bitrate=N/A speed=   0x elapsed=0:00:04.85    \nframe=    4 fps=0.7 q=32.0 size=       1KiB time=00:00:00.10 bitrate=  57.0kbits/s speed=0.0186x elapsed=0:00:05.36    \nframe=    7 fps=1.2 q=31.0 size=       1KiB time=00:00:00.20 bitrate=  28.5kbits/s speed=0.0339x elapsed=0:00:05.89    \nframe=    8 fps=1.2 q=32.0 size=       1KiB time=00:00:00.23 bitrate=  24.4kbits/s speed=0.0364x elapsed=0:00:06.41    \nframe=   12 fps=1.7 q=37.0 size=       1KiB time=00:00:00.36 bitrate=  15.6kbits/s speed=0.0527x elapsed=0:00:06.95    \nframe=   18 fps=2.4 q=37.0 size=       1KiB time=00:00:00.56 bitrate=  10.1kbits/s speed=0.0757x elapsed=0:00:07.48    \nframe=   21 fps=2.6 q=32.0 size=       1KiB time=00:00:00.66 bitrate=   8.6kbits/s speed=0.0833x elapsed=0:00:08.00    \nframe=   23 fps=2.7 q=33.0 size=       1KiB time=00:00:00.73 bitrate=   7.8kbits/s speed=0.0861x elapsed=0:00:08.51    \nframe=   28 fps=3.1 q=36.0 size=       1KiB time=00:00:00.90 bitrate=   6.3kbits/s speed=0.0995x elapsed=0:00:09.04    \nframe=   34 fps=3.6 q=38.0 size=       1KiB time=00:00:01.10 bitrate=   5.2kbits/s speed=0.115x elapsed=0:00:09.56    \nframe=   39 fps=3.9 q=37.0 size=       1KiB time=00:00:01.26 bitrate=   4.5kbits/s speed=0.126x elapsed=0:00:10.08    \nframe=   43 fps=4.0 q=36.0 size=       1KiB time=00:00:01.36 bitrate=   4.2kbits/s speed=0.129x elapsed=0:00:10.62    \nframe=   47 fps=4.2 q=36.0 size=       1KiB time=00:00:01.53 bitrate=   3.7kbits/s speed=0.137x elapsed=0:00:11.20    \nframe=   50 fps=4.3 q=38.0 size=       1KiB time=00:00:01.63 bitrate=   3.5kbits/s speed=0.139x elapsed=0:00:11.71    \nframe=   52 fps=4.2 q=34.0 size=       1KiB time=00:00:01.70 bitrate=   3.4kbits/s speed=0.139x elapsed=0:00:12.24    \nframe=   57 fps=4.5 q=34.0 size=       1KiB time=00:00:01.86 bitrate=   3.1kbits/s speed=0.146x elapsed=0:00:12.80    \nframe=   57 fps=4.3 q=34.0 size=       1KiB time=00:00:01.86 bitrate=   3.1kbits/s speed=0.14x elapsed=0:00:13.36    \nframe=   61 fps=4.4 q=34.0 size=       1KiB time=00:00:02.00 bitrate=   2.9kbits/s speed=0.144x elapsed=0:00:13.89    \nframe=   63 fps=4.3 q=36.0 size=       1KiB time=00:00:02.06 bitrate=   2.8kbits/s speed=0.143x elapsed=0:00:14.49    \nframe=   65 fps=4.3 q=29.0 size=       1KiB time=00:00:02.13 bitrate=   2.7kbits/s speed=0.142x elapsed=0:00:15.04    \nframe=   71 fps=4.6 q=35.0 size=       1KiB time=00:00:02.33 bitrate=   2.4kbits/s speed=0.15x elapsed=0:00:15.59    \nframe=   73 fps=4.5 q=34.0 size=       1KiB time=00:00:02.40 bitrate=   2.4kbits/s speed=0.149x elapsed=0:00:16.13    \nframe=   77 fps=4.6 q=34.0 size=       1KiB time=00:00:02.53 bitrate=   2.3kbits/s speed=0.152x elapsed=0:00:16.65    \nframe=   83 fps=4.8 q=38.0 size=       1KiB time=00:00:02.73 bitrate=   2.1kbits/s speed=0.159x elapsed=0:00:17.17    \nframe=   87 fps=4.9 q=38.0 size=       1KiB time=00:00:02.86 bitrate=   2.0kbits/s speed=0.162x elapsed=0:00:17.69    \nframe=   89 fps=4.9 q=34.0 size=       1KiB time=00:00:02.93 bitrate=   1.9kbits/s speed=0.161x elapsed=0:00:18.21    \nframe=   93 fps=5.0 q=35.0 size=       1KiB time=00:00:03.06 bitrate=   1.9kbits/s speed=0.164x elapsed=0:00:18.73    \nframe=  101 fps=5.2 q=37.0 size=       1KiB time=00:00:03.33 bitrate=   1.7kbits/s speed=0.173x elapsed=0:00:19.25    \nframe=  105 fps=5.3 q=35.0 size=       1KiB time=00:00:03.46 bitrate=   1.6kbits/s speed=0.175x elapsed=0:00:19.76    \nframe=  109 fps=5.4 q=35.0 size=       1KiB time=00:00:03.60 bitrate=   1.6kbits/s speed=0.178x elapsed=0:00:20.27    \nframe=  113 fps=5.4 q=30.0 size=       1KiB time=00:00:03.73 bitrate=   1.5kbits/s speed=0.179x elapsed=0:00:20.80    \nframe=  117 fps=5.5 q=37.0 size=       1KiB time=00:00:03.86 bitrate=   1.5kbits/s speed=0.181x elapsed=0:00:21.32    \nframe=  121 fps=5.5 q=35.0 size=       1KiB time=00:00:04.00 bitrate=   1.4kbits/s speed=0.183x elapsed=0:00:21.84    \nframe=  125 fps=5.6 q=37.0 size=       1KiB time=00:00:04.13 bitrate=   1.4kbits/s speed=0.185x elapsed=0:00:22.39    \nframe=  133 fps=5.8 q=40.0 size=       1KiB time=00:00:04.40 bitrate=   1.3kbits/s speed=0.192x elapsed=0:00:22.92    \nframe=  137 fps=5.8 q=37.0 size=       1KiB time=00:00:04.53 bitrate=   1.3kbits/s speed=0.193x elapsed=0:00:23.46    \nframe=  139 fps=5.8 q=40.0 size=       1KiB time=00:00:04.60 bitrate=   1.2kbits/s speed=0.192x elapsed=0:00:23.97    \nframe=  143 fps=5.8 q=40.0 size=       1KiB time=00:00:04.73 bitrate=   1.2kbits/s speed=0.193x elapsed=0:00:24.49    \n[out#0/matroska @ 0000017987749700] video:5142KiB audio:0KiB subtitle:0KiB other streams:0KiB global headers:0KiB muxing overhead: 0.028430%\nframe=  150 fps=6.1 q=41.0 Lsize=    5144KiB time=00:00:04.96 bitrate=8483.9kbits/s speed=0.202x elapsed=0:00:24.59    \n",
  "seconds": 25.083829164505005,
  "probe_out": {}
}